<?xml version="1.0" encoding="UTF-8" standalone="no"?>
<!-- Created with Inkscape (http://www.inkscape.org/) -->

<svg
   xmlns:dc="http://purl.org/dc/elements/1.1/"
   xmlns:cc="http://creativecommons.org/ns#"
   xmlns:rdf="http://www.w3.org/1999/02/22-rdf-syntax-ns#"
   xmlns:svg="http://www.w3.org/2000/svg"
   xmlns="http://www.w3.org/2000/svg"
   version="1.1"
   width="766.15625"
   height="318.89749"
   id="svg2"
   xml:space="preserve"><metadata
     id="metadata8"><rdf:RDF><cc:Work
         rdf:about=""><dc:format>image/svg+xml</dc:format><dc:type
           rdf:resource="http://purl.org/dc/dcmitype/StillImage" /><dc:title></dc:title></cc:Work></rdf:RDF></metadata><defs
     id="defs6"><clipPath
       id="clipPath16"><path
         d="m 0,255.118 612.925,0 L 612.925,0 0,0 0,255.118 z"
         id="path18" /></clipPath></defs><g
     transform="matrix(1.25,0,0,-1.25,0,318.8975)"
     id="g10"><g
       id="g12"><g
         clip-path="url(#clipPath16)"
         id="g14"><g
           transform="translate(52.8574,159.7686)"
           id="g20"><path
             d="m 0,0 c -0.488,-0.068 -0.977,-0.143 -1.049,-0.561 -0.067,-0.348 -0.137,-11.524 -0.137,-13.196 l 0.07,-20.957 c 0,-2.793 0.28,-4.394 1.882,-4.678 1.678,-0.349 6.009,-0.349 7.825,-0.349 15.014,0 18.996,12.219 18.996,20.814 0,5.24 -1.325,10.827 -5.516,14.874 C 17.88,0 12.571,0 3.143,0 L 0,0 z m -9.918,-14.036 c 0,2.163 -0.068,11.867 -0.348,13.127 -0.136,0.841 -1.047,1.396 -2.795,1.752 -1.539,0.344 -1.814,0.625 -1.814,1.602 l 0,1.398 c 0,0.904 0.207,1.116 0.98,1.116 2.021,0 6.489,-0.28 9.775,-0.28 3.004,0 7.611,0.212 9.849,0.28 2.512,0.075 4.885,0.143 6.985,0.143 5.796,0 12.15,-0.423 17.737,-6.079 5.45,-5.521 6.634,-12.71 6.634,-17.95 0,-5.377 -1.114,-12.148 -6.982,-18.297 -6.218,-6.568 -12.923,-7.406 -19.141,-7.406 -0.836,0 -3.559,0.145 -5.233,0.213 -4.052,0.139 -6.988,0.275 -8.244,0.275 -7.125,0 -10.615,-0.275 -11.453,-0.275 -0.769,0 -0.907,0.418 -0.907,1.115 l 0,1.399 c 0,1.117 0.348,1.261 1.814,1.601 2.518,0.561 2.863,1.194 2.931,2.795 0.144,2.938 0.212,8.244 0.212,12.088 l 0,11.383 z"
             id="path22"
             style="fill:#000000;fill-opacity:1;fill-rule:nonzero;stroke:none" /></g><g
           transform="translate(108.376,140.4941)"
           id="g24"><path
             d="m 0,0 c 0,-8.879 5.589,-21.027 18.436,-21.027 12.786,0 18.511,11.322 18.511,20.47 0,8.376 -5.027,20.742 -18.163,20.742 C 5.868,20.185 0,9.216 0,0 m 46.444,-0.346 c 0,-11.175 -7.051,-25.57 -28.146,-25.57 -19.487,0 -27.798,11.805 -27.798,25.213 0,4.824 0.978,12.994 9.011,19.697 3.911,3.213 9.425,6.084 19.205,6.084 24.935,0 27.728,-19.355 27.728,-25.424"
             id="path26"
             style="fill:#000000;fill-opacity:1;fill-rule:nonzero;stroke:none" /></g><g
           transform="translate(163.8223,117.7266)"
           id="g28"><path
             d="m 0,0 c 0,0.768 0,1.256 2.373,1.74 1.816,0.418 2.306,0.774 2.306,4.123 0,4.123 0.21,10.76 0.21,14.875 l 0,7.268 c 0,2.377 0,10.893 -0.351,12.641 C 4.263,42.042 3.423,42.392 2.166,42.672 0.07,43.09 0,43.646 0,44.345 l 0,1.472 c 0,1.116 0.417,1.184 0.977,1.184 1.046,0 3.628,-0.28 5.589,-0.28 2.512,0 5.446,0.28 6.355,0.28 0.49,0 0.629,-0.068 1.465,-1.184 2.794,-3.561 3.142,-4.055 5.939,-7.336 7.543,-8.799 15.153,-17.532 22.769,-26.329 0.07,-0.076 0.418,-0.496 0.486,-0.496 0.141,0 0.141,0.289 0.141,0.563 0,1.33 -0.209,7.334 -0.209,8.588 -0.068,2.73 -0.281,18.937 -0.489,20.119 -0.277,1.184 -1.257,1.466 -3.565,2.236 -0.835,0.211 -0.905,0.698 -0.905,1.325 l 0,1.467 c 0,0.767 0.35,1.047 1.188,1.047 1.394,0 3.63,-0.28 6.076,-0.28 2.443,0 5.797,0.28 7.197,0.28 0.416,0 0.905,-0.212 0.905,-1.047 l 0,-1.116 c 0,-1.048 0,-1.535 -1.539,-1.748 -2.3,-0.418 -2.999,-1.191 -2.999,-3.907 0,-1.886 0,-3.495 -0.071,-5.384 -0.141,-5.514 -0.209,-15.225 -0.209,-18.717 0,-2.166 0.136,-11.664 0.068,-13.553 0,-0.556 0.141,-3.002 0.141,-3.556 0,-0.703 -0.141,-0.84 -1.401,-1.743 l -0.974,-0.912 c -0.143,-0.068 -0.35,-0.136 -0.487,-0.136 -0.282,0 -0.282,0 -1.19,1.048 -5.238,6.42 -30.382,34.986 -34.296,40.014 -0.064,0.068 -0.416,0.561 -0.555,0.561 -0.068,0 -0.068,-0.561 -0.068,-0.766 0.207,-8.24 0.277,-9.15 0.349,-18.09 l 0.067,-7.402 c 0,-1.123 0,-6.149 0.143,-6.846 0.207,-1.4 1.607,-1.678 3.284,-1.961 1.464,-0.279 1.464,-1.107 1.464,-1.67 l 0,-1.259 c 0,-0.981 -0.35,-1.186 -0.98,-1.186 -1.184,0 -4.12,0.275 -6.005,0.275 C 5.659,-2.1 2.166,-2.375 0.977,-2.375 0.21,-2.375 0,-2.027 0,-1.473 L 0,0 z"
             id="path30"
             style="fill:#000000;fill-opacity:1;fill-rule:nonzero;stroke:none" /></g><g
           transform="translate(240.9873,159.7686)"
           id="g32"><path
             d="m 0,0 c -0.485,-0.068 -0.973,-0.143 -1.044,-0.561 -0.072,-0.348 -0.142,-11.524 -0.142,-13.196 l 0.07,-20.957 c 0,-2.793 0.281,-4.394 1.886,-4.678 1.677,-0.349 6.007,-0.349 7.826,-0.349 15.016,0 18.997,12.219 18.997,20.814 0,5.24 -1.331,10.827 -5.522,14.874 C 17.884,0 12.573,0 3.143,0 L 0,0 z m -9.914,-14.036 c 0,2.163 -0.071,11.867 -0.352,13.127 -0.137,0.841 -1.049,1.396 -2.793,1.752 -1.535,0.344 -1.817,0.625 -1.817,1.602 l 0,1.398 c 0,0.904 0.214,1.116 0.98,1.116 2.025,0 6.493,-0.28 9.78,-0.28 3,0 7.616,0.212 9.848,0.28 2.513,0.075 4.89,0.143 6.986,0.143 5.793,0 12.148,-0.423 17.736,-6.079 5.446,-5.521 6.637,-12.71 6.637,-17.95 0,-5.377 -1.116,-12.148 -6.987,-18.297 -6.217,-6.568 -12.918,-7.406 -19.133,-7.406 -0.843,0 -3.566,0.145 -5.239,0.213 -4.053,0.139 -6.985,0.275 -8.241,0.275 -7.126,0 -10.619,-0.275 -11.457,-0.275 -0.769,0 -0.91,0.418 -0.91,1.115 l 0,1.399 c 0,1.117 0.35,1.261 1.817,1.601 2.517,0.561 2.861,1.194 2.938,2.795 0.136,2.938 0.207,8.244 0.207,12.088 l 0,11.383 z"
             id="path34"
             style="fill:#000000;fill-opacity:1;fill-rule:nonzero;stroke:none" /></g><g
           transform="translate(292.0352,145.7324)"
           id="g36"><path
             d="m 0,0 c 0,2.163 -0.07,11.867 -0.347,13.127 -0.139,0.841 -1.048,1.396 -2.796,1.752 -1.533,0.344 -1.815,0.625 -1.815,1.602 l 0,1.398 c 0,0.904 0.21,1.116 0.979,1.116 1.26,0 8.243,-0.349 16.343,-0.349 9.151,0 11.594,0.349 13.132,0.349 1.116,0 1.257,-0.841 1.257,-1.328 L 26.33,9.847 c 0,-1.048 -0.621,-1.048 -1.182,-1.048 l -0.98,0 c -1.047,0 -1.327,0 -1.676,1.951 -0.209,1.329 -0.837,2.726 -2.304,3.006 -0.7,0.138 -4.683,0.138 -5.728,0.138 -0.699,0 -5.165,0 -5.382,-0.206 C 8.803,13.476 8.803,13.197 8.803,10.963 8.73,7.052 8.73,6.635 8.73,4.82 c 0,-6.843 0,-6.984 0.348,-7.336 0.422,-0.347 7.899,-0.347 9.227,-0.347 1.817,0 1.883,0 5.375,0.136 0.278,0 1.325,0.143 1.816,0.143 0.631,0 0.631,-0.492 0.488,-1.402 l -0.347,-2.787 c -0.141,-1.194 -0.141,-1.541 -1.191,-1.541 -0.278,0 -3.703,0.21 -4.398,0.281 -2.513,0.066 -6.427,0.066 -9.009,0.066 -1.257,0 -2.028,-0.066 -2.164,-0.767 -0.072,-0.553 -0.145,-5.936 -0.145,-6.983 0,-1.742 0,-5.447 0.145,-7.056 0.203,-2.649 1.816,-2.649 4.886,-2.649 8.175,0 10.619,0 11.593,3.91 0.563,2.162 1.119,2.242 2.024,2.242 l 1.33,0 c 0.98,0 1.188,-0.359 1.116,-1.058 l -1.116,-8.449 c -0.214,-1.885 -0.906,-1.959 -1.813,-1.959 -1.048,0 -6.076,0.287 -8.452,0.355 -2.029,0.068 -9.432,0.276 -11.667,0.276 -7.123,0 -9.428,-0.276 -10.824,-0.276 -0.768,0 -0.91,0.418 -0.91,1.186 l 0,1.328 c 0,1.117 0.347,1.322 1.815,1.601 2.518,0.631 2.868,1.26 2.935,2.795 C -0.07,-20.465 0,-15.227 0,-11.314 L 0,0 z"
             id="path38"
             style="fill:#000000;fill-opacity:1;fill-rule:nonzero;stroke:none" /></g><g
           transform="translate(343.7168,144.6152)"
           id="g40"><path
             d="m 0,0 c 0,-1.328 0.213,-1.533 1.609,-1.533 0.904,0 5.863,0 7.891,1.32 3.49,2.233 3.909,5.94 3.909,7.547 0,0.487 0,6.143 -5.59,7.608 -1.812,0.494 -4.608,0.494 -5.867,0.494 -0.973,0 -1.739,0 -1.885,-0.563 C 0,14.314 0,11.457 -0.075,10.682 L 0,0 z m -0.075,-10.266 c 0,-2.027 0.075,-11.951 0.288,-13.136 0.273,-0.973 1.533,-1.463 2.795,-1.746 1.6,-0.28 1.876,-0.627 1.876,-1.602 l 0,-1.398 c 0,-0.84 -0.138,-1.116 -0.973,-1.116 -1.116,0 -6.845,0.276 -8.102,0.276 -1.395,0 -7.403,-0.276 -8.66,-0.276 -0.764,0 -0.912,0.418 -0.912,1.116 l 0,1.398 c 0,1.117 0.426,1.262 1.892,1.602 2.515,0.56 2.862,1.193 2.932,2.794 0.073,2.938 0.139,8.245 0.139,12.088 l 0,11.383 c 0,2.163 0,11.867 -0.274,13.128 -0.215,0.84 -1.124,1.396 -2.797,1.752 -1.611,0.343 -1.892,0.624 -1.892,1.602 l 0,1.397 c 0,0.904 0.281,1.116 0.982,1.116 1.744,0 6.218,-0.28 9.149,-0.28 2.095,0 10.199,0.28 12.568,0.28 6.424,0 9.015,-2.026 10.412,-3.491 2.443,-2.444 3.491,-5.657 3.491,-8.519 0,-1.192 -0.354,-8.663 -7.408,-11.383 -0.764,-0.28 -1.246,-0.424 -1.607,-0.492 -0.271,-0.069 -0.626,-0.139 -0.626,-0.348 0,-0.07 3.78,-7.473 6.01,-11.246 5.31,-8.871 6.698,-9.432 7.96,-9.848 0.354,-0.144 1.677,-0.486 1.957,-0.631 0.419,-0.275 0.419,-0.342 0.419,-1.254 l 0,-1.183 c 0,-0.981 -0.774,-0.981 -1.32,-0.981 -0.919,0 -4.892,0.139 -5.659,0.139 -1.547,0 -4.054,-0.139 -5.587,-0.139 -1.124,0 -1.473,0.139 -1.892,1.186 -2.793,6.984 -6.15,13.826 -9.504,20.599 -0.616,1.329 -1.11,1.891 -2.718,1.891 -2.516,0 -2.939,0 -2.939,-1.262 l 0,-3.416 z"
             id="path42"
             style="fill:#000000;fill-opacity:1;fill-rule:nonzero;stroke:none" /></g><g
           transform="translate(407.8936,155.7153)"
           id="g44"><path
             d="m 0,0 c -0.137,-0.972 -0.137,-1.047 -1.324,-1.047 l -1.184,0 c -0.918,0 -1.259,0 -1.396,0.7 -0.358,1.745 -0.63,3.142 -2.589,4.258 -1.602,0.917 -3.424,1.116 -4.603,1.116 -4.409,0 -7.477,-2.718 -7.477,-5.999 0,-3.986 2.369,-5.663 12.642,-12.925 3.63,-2.58 8.38,-6.498 8.38,-12.922 0,-6.566 -5.45,-14.318 -17.742,-14.318 -3.213,0 -8.938,0.842 -11.525,2.029 -1.041,0.49 -1.111,0.695 -0.973,1.676 l 0.766,7.189 c 0.07,0.563 0.07,0.991 1.117,0.991 l 1.255,0 c 0.492,0 1.256,0 1.395,-0.846 0.495,-2.725 0.698,-4.121 3.706,-5.377 1.951,-0.84 4.047,-1.053 5.169,-1.053 5.658,0 8.52,3.918 8.52,7.195 0,4.051 -3,6.151 -11.108,11.741 -7.682,5.299 -9.71,9.142 -9.71,13.826 0,6.353 4.75,10.122 7.617,11.662 2.997,1.604 6.565,1.961 9.71,1.961 3.846,0 7.887,-0.63 9.354,-1.473 C 0.841,7.896 0.917,7.616 0.765,6.712 L 0,0 z"
             id="path46"
             style="fill:#000000;fill-opacity:1;fill-rule:nonzero;stroke:none" /></g><path
           d="m 42.734,101.506 3.114,0 0,-22.799 -3.114,0 0,22.799 z"
           id="path48"
           style="fill:#000000;fill-opacity:1;fill-rule:nonzero;stroke:none" /><g
           transform="translate(94.855,78.707)"
           id="g50"><path
             d="m 0,0 -10.779,15.543 c -0.892,1.264 -1.846,3.049 -1.846,3.049 l -0.071,0 c 0,0 0.141,-1.408 0.141,-2.598 l 0,-15.994 -2.845,0 0,22.799 3.045,0 L -2.084,8.082 C -0.956,6.439 0.07,4.621 0.07,4.621 l 0.068,0 C 0.138,4.621 0,6.064 0,7.807 l 0,14.992 2.843,0 L 2.843,0 0,0 z"
             id="path52"
             style="fill:#000000;fill-opacity:1;fill-rule:nonzero;stroke:none" /></g><g
           transform="translate(135.8926,78.2969)"
           id="g54"><path
             d="m 0,0 c -3.525,0 -5.752,1.51 -6.606,2.33 l 1.509,2.19 c 0.516,-0.479 2.19,-1.952 5.166,-1.952 2.707,0 4.451,1.711 4.451,3.633 0,2.598 -2.569,3.658 -5.204,4.957 -2.804,1.367 -5.234,2.916 -5.234,6.545 0,3.762 3.184,5.916 6.775,5.916 3.456,0 5.339,-1.23 6.128,-1.848 L 5.548,19.516 c -0.788,0.615 -2.361,1.539 -4.655,1.539 -2.194,0 -3.8,-1.231 -3.8,-3.221 0,-2.188 1.847,-3.148 4.146,-4.213 C 4.246,12.191 7.602,10.646 7.602,6.268 7.602,2.568 4.555,0 0,0"
             id="path56"
             style="fill:#000000;fill-opacity:1;fill-rule:nonzero;stroke:none" /></g><g
           transform="translate(182.3022,98.9063)"
           id="g58"><path
             d="m 0,0 0,-20.199 -3.11,0 0,20.199 -6.434,0 0,2.6 15.983,0 0,-2.6 L 0,0 z"
             id="path60"
             style="fill:#000000;fill-opacity:1;fill-rule:nonzero;stroke:none" /></g><path
           d="m 219.816,101.506 3.117,0 0,-22.799 -3.117,0 0,22.799 z"
           id="path62"
           style="fill:#000000;fill-opacity:1;fill-rule:nonzero;stroke:none" /><g
           transform="translate(263.5923,98.9063)"
           id="g64"><path
             d="m 0,0 0,-20.199 -3.114,0 0,20.199 -6.437,0 0,2.6 15.987,0 0,-2.6 L 0,0 z"
             id="path66"
             style="fill:#000000;fill-opacity:1;fill-rule:nonzero;stroke:none" /></g><g
           transform="translate(309.7266,78.2969)"
           id="g68"><path
             d="m 0,0 c -6.295,0 -8.998,3.527 -8.998,9.004 l 0,14.205 3.08,0 0,-13.863 c 0,-4.547 1.85,-6.707 5.985,-6.707 3.973,0 5.824,2.537 5.824,6.261 l 0,14.309 2.875,0 0,-13.998 C 8.766,3.492 5.988,0 0,0"
             id="path70"
             style="fill:#000000;fill-opacity:1;fill-rule:nonzero;stroke:none" /></g><g
           transform="translate(358.877,98.9063)"
           id="g72"><path
             d="m 0,0 0,-20.199 -3.117,0 0,20.199 -6.427,0 0,2.6 15.979,0 0,-2.6 L 0,0 z"
             id="path74"
             style="fill:#000000;fill-opacity:1;fill-rule:nonzero;stroke:none" /></g><g
           transform="translate(395.1406,78.707)"
           id="g76"><path
             d="m 0,0 0,22.799 12.008,0 0,-2.6 -8.933,0 0,-6.879 7.84,0 0,-2.572 -7.84,0 0,-8.144 9.179,0 L 12.254,0 0,0 z"
             id="path78"
             style="fill:#000000;fill-opacity:1;fill-rule:nonzero;stroke:none" /></g><g
           transform="translate(585.7246,255.1177)"
           id="g80"><path
             d="m 0,0 -42.781,-103.27 0.369,-0.599 c 1.599,-2.587 2.989,-5.292 4.13,-8.042 l 2.588,-6.254 L 13.256,0 0,0 z"
             id="path82"
             style="fill:#be311a;fill-opacity:1;fill-rule:nonzero;stroke:none" /></g><g
           transform="translate(527.5713,117.1855)"
           id="g84"><path
             d="m 0,0 c -0.37,-2.455 -1.032,-4.873 -1.974,-7.207 l -0.104,-0.275 c -3.26,-7.872 -9.39,-14.002 -17.264,-17.26 -3.906,-1.617 -8.011,-2.438 -12.202,-2.438 l -0.002,0 c -12.955,0 -24.525,7.733 -29.475,19.701 -3.258,7.866 -3.258,16.534 0,24.405 3.258,7.873 9.385,14.004 17.251,17.262 3.907,1.616 8.011,2.436 12.201,2.436 12.956,0 24.529,-7.729 29.484,-19.692 l 28.696,-69.252 13.243,0 -0.217,0.525 C 36.459,-44.129 8.571,23.117 8.225,23.84 c -7.297,15.206 -22.92,25.032 -39.804,25.032 -5.793,0 -11.469,-1.134 -16.868,-3.371 -22.487,-9.318 -33.203,-35.188 -23.888,-57.673 6.86,-16.56 22.876,-27.26 40.801,-27.26 5.796,0 11.472,1.133 16.873,3.369 10.048,4.163 18.176,11.856 22.886,21.661 L 8.49,-13.85 0.737,4.875 0,0 z"
             id="path86"
             style="fill:#be311a;fill-opacity:1;fill-rule:nonzero;stroke:none" /></g><g
           transform="translate(506.9326,95.5684)"
           id="g88"><path
             d="m 0,0 c -14.546,-6.041 -31.229,0.881 -37.253,15.428 -6.034,14.537 0.875,31.234 15.429,37.248 C -7.272,58.702 9.411,51.799 15.429,37.252 21.457,22.709 14.547,6.018 0,0 M 19.82,39.074 C 12.795,56.035 -6.667,64.104 -23.655,57.072 -40.622,50.045 -48.676,30.576 -41.649,13.613 -34.624,-3.371 -15.16,-11.424 1.822,-4.393 c 8.487,3.514 14.747,10.135 18.005,18.002 0.042,0.102 0.078,0.205 0.117,0.307 0.97,2.404 1.661,4.918 2.051,7.496 l 12.336,-29.779 9.253,-22.336 5.149,0 -28.913,69.777 z"
             id="path90"
             style="fill:#ff0000;fill-opacity:1;fill-rule:nonzero;stroke:none" /></g><g
           transform="translate(582.0732,255.1177)"
           id="g92"><path
             d="m 0,0 -40.805,-98.494 c 1.138,-1.485 2.211,-3.035 3.21,-4.653 L 5.136,0 0,0 z"
             id="path94"
             style="fill:#ff0000;fill-opacity:1;fill-rule:nonzero;stroke:none" /></g><g
           transform="translate(612.9248,255.1177)"
           id="g96"><path
             d="m 0,0 -15.429,0 -47.465,-114.578 -1.322,3.192 c -1.205,2.906 -2.628,5.648 -4.23,8.24 -0.999,1.617 -2.073,3.167 -3.21,4.652 -15.327,19.999 -42.695,28.072 -67.071,17.965 -29.091,-12.052 -42.918,-45.412 -30.859,-74.5 12.054,-29.101 45.405,-42.928 74.499,-30.871 9.604,3.975 17.531,10.283 23.426,17.984 l -6.704,16.176 c -4.399,-9.156 -12.05,-16.793 -22.175,-20.986 -21.825,-9.039 -46.843,1.328 -55.882,23.148 -9.039,21.817 1.329,46.84 23.147,55.881 21.088,8.734 45.153,-0.656 54.91,-20.988 0.341,-0.709 31.382,-75.566 31.382,-75.566 l 15.433,0 -23.627,57.043 L 0,0 z"
             id="path98"
             style="fill:#8e0000;fill-opacity:1;fill-rule:nonzero;stroke:none" /></g></g></g></g></svg>